# xmcd CD database file
#
# Track frame offsets:
#	150
#	15334
#	37831
#	53366
#	66755
#	87245
#	99062
#	110464
#	125511
#	144183
#	160480
#	176214
#	194576
#	208148
#
# Disc length: 3007 seconds
#
# Revision: 2
# Processed by: cddbd v1.5.2PL0 Copyright (c) Steve Scherf et al.
# Submitted via: jetAudio 5
#
DISCID=b30bbd0e
DTITLE=Eric Clapton - Me And Mr Johnson
DYEAR=1900
DGENRE=
TTITLE0=When You Got A Good Friend
TTITLE1=Little Queen Of Spades
TTITLE2=They're Red Hot
TTITLE3=Me And The Devil Blues
TTITLE4=Traveling Riverside Blues
TTITLE5=Last Fair Deal Gone Down
TTITLE6=Stop Breakin Down Blues
TTITLE7=Milkcow's Calf Blues
TTITLE8=Kind Hearted Woman Blues
TTITLE9=Come On In My Kitchen
TTITLE10=If I Had Possession Over Judgement Day
TTITLE11=Love In Vain
TTITLE12=32-20 Blues
TTITLE13=Hell Hound On My Trail
EXTD=by picca_one
EXTT0=
EXTT1=
EXTT2=
EXTT3=
EXTT4=
EXTT5=
EXTT6=
EXTT7=
EXTT8=
EXTT9=
EXTT10=
EXTT11=
EXTT12=
EXTT13=
PLAYORDER=
